<svg xmlns="http://www.w3.org/2000/svg" version="1.1" xmlns:xlink="http://www.w3.org/1999/xlink" xmlns:svgjs="http://svgjs.dev/svgjs" width="1000" height="1000" viewBox="0 0 1000 1000"><rect width="1000" height="1000" fill="#ffffff"></rect><g transform="matrix(0.7,0,0,0.7,150.0000000000001,106.25)"><svg viewBox="0 0 320 360" data-background-color="#28353b" preserveAspectRatio="xMidYMid meet" height="1125" width="1000" xmlns="http://www.w3.org/2000/svg" xmlns:xlink="http://www.w3.org/1999/xlink"><g id="tight-bounds" transform="matrix(1,0,0,1,-5.684341886080802e-14,0)"><svg viewBox="0 0 320 360" height="360" width="320"><g><svg></svg></g><g><svg viewBox="0 0 320 360" height="360" width="320"><g><path xmlns="http://www.w3.org/2000/svg" d="M85.508 32.884c0-1.117 0.558-2.233 1.675-2.233 1.117 0 2.233 0.558 2.234 2.233 0.558 0 1.675 0 2.233-0.558 2.233 0 4.467-0.558 6.141 0 1.675 0.558 2.792 0.558 4.467 1.117 1.675 0.558 2.792 0 3.908-0.559 2.233-0.558 3.908-1.675 6.141-2.233 1.117-0.558 1.675-0.558 2.792-0.558 1.117-0.558 2.233-0.558 3.908-1.117 2.792-0.558 5.583-1.117 7.817-2.233 2.233-1.117 4.467-1.117 6.699-1.675 1.117 0 1.675-0.558 2.792-1.117 0.558 0 0.558-0.558 1.116-1.116 1.117-0.558 1.675-1.117 2.792-0.559 0.558 0.558 1.675 0.558 2.233 0h0.559c3.35 0 6.7-0.558 10.608 0 0.558 0 1.117 0 1.116 0 1.675-1.117 3.908-1.117 6.142-1.116 0.558 0 1.675 0 2.233 0h0.558c2.233 0 4.467 0 6.142 0.558 1.675 0 2.792 0.558 4.466 1.117 1.675 0 2.792 0 4.467 0.558 1.117 0 2.233 0 3.35 0 0.558 0 1.117 0 1.116 0 2.233 0.558 4.467 0.558 6.7 0.558 1.675 0.558 3.35 1.117 5.583 1.117 0.558 0 1.117 0 1.675 0 0.558 0 1.117 0.558 1.675 0.558l0.558 0.559c2.233 0 3.908 1.117 6.142 1.116 0.558 0 1.675 0 2.233 0.559 1.675 1.117 3.908 1.675 6.141 1.675 1.117 0 1.675 0.558 2.234 1.116 1.675 0.558 2.792 1.117 4.466 1.675 1.117 0.558 2.233 0 3.35 0.558 1.675 0.558 3.908 1.117 5.583 2.792 1.117 1.117 2.233 1.117 3.908 2.233 0.558 0 1.117 0.558 1.675 1.117 1.675 1.117 3.35 2.233 5.025 2.791 0.558 0 1.117 0.558 1.675 0.559 1.675 1.117 3.35 2.792 5.583 3.908 1.117 0.558 1.675 1.117 2.792 1.675h0.558c1.675 1.675 3.908 2.792 5.583 4.466 1.675 1.675 2.792 2.792 5.025 3.909 0 0 0 0 0 0.558 0.558 1.117 1.117 1.675 2.233 2.233 1.117 0.558 1.675 1.117 2.234 1.675 1.675 1.117 3.35 2.233 4.466 3.35 0.558 0.558 1.117 1.117 2.233 2.233 0.558 0.558 1.117 1.117 1.675 1.117 2.233 0.558 3.35 2.233 5.025 3.908 1.117 1.117 2.792 2.792 3.908 3.908 0.558 0.558 1.117 1.675 1.675 2.792 1.117 3.35 2.792 6.7 4.467 9.491 0 0 0 0.558 0.558 1.117v0.558c1.117 1.117 1.675 2.792 2.792 3.908 0.558 0.558 0.558 1.117 1.116 1.675 1.117 1.675 1.675 3.908 2.792 5.583 1.675 2.792 2.792 5.583 3.908 8.375v0.558c0.558 1.117 1.117 2.233 1.675 3.908 0 1.117 1.117 2.233 1.675 3.909 0.558 2.792 2.233 5.583 2.791 8.933 0 0.558 0.558 1.117 0.559 2.233 0.558 1.675 1.117 3.35 1.675 5.025 0 0.558 0.558 1.117 1.116 1.675 1.117 1.117 1.117 2.233 1.117 3.35-0.558 2.233 0 4.467 0.558 6.699 0 0.558 0 1.117 0 2.234 0.558 2.233 1.117 5.025 1.117 7.258 0 0.558 0 1.675 0 2.233 0 1.675 0.558 3.35 1.675 5.025 0 0.558 0.558 0.558 0.558 0.558 0.558 0.558 1.117 1.675 1.675 2.233 0.558 0.558 0.558 0.558 1.117 1.117 1.117 1.117 1.675 2.233 1.675 3.908 0 0.558-0.558 1.675-0.559 2.233 0 0.558 0 1.675 0.559 2.234 0.558 0.558 0.558 1.117 0.558 1.675 0 0.558-0.558 1.117-1.117 1.116v0c-0.558 1.675-2.792 2.233-3.35 3.908-0.558 2.233-1.117 4.467-1.674 6.7-0.558 1.675-0.558 2.792-0.559 4.467 0 1.675-0.558 2.792-0.558 4.466-0.558 2.233-1.117 4.467-1.675 6.7 0 1.117-0.558 2.233-0.558 3.35 0.558 0.558 1.117 1.117 1.675 1.116 1.117 1.117 2.233 2.233 3.349 3.35 0.558 0.558 0.558 1.117 0 1.117-0.558 0.558-1.117 0.558-1.674 0.558-0.558-0.558-1.675-1.117-2.234-1.116-0.558-0.558-1.675-1.117-2.791-0.559 0 1.117-0.558 2.233-0.559 2.792-0.558 1.117-1.117 2.792-1.116 3.908-0.558 2.233-1.675 3.908-2.233 6.142-1.117 2.792-2.233 5.025-3.35 7.258-0.558 1.117-1.117 2.233-1.675 3.35v0c0 1.675-1.675 3.35-2.234 5.024-1.117 2.233-2.233 4.467-3.349 7.258-0.558 1.117-1.117 2.233-1.675 2.792-1.117 2.792-2.233 5.025-3.909 7.258-1.117 1.675-2.233 2.792-3.349 3.35-1.117 1.117-2.233 2.233-3.35 3.35-0.558 0.558-1.117 1.117-1.675 1.675-0.558 0.558-0.558 0.558-1.117 1.116-1.117 1.675-2.792 2.792-3.908 4.467-1.117 1.117-1.675 2.233-3.35 3.35-1.117 1.117-2.233 2.792-3.908 3.35-0.558 0.558-1.117 1.675-1.675 2.233-0.558 0.558-1.117 1.675-1.675 2.233 0 1.117 0.558 2.233 0.558 2.792 0 1.675-1.675 2.233-2.791 1.116-1.675-1.117-1.675-1.117-3.35 0-1.675 1.117-3.35 2.792-5.583 3.35-0.558 0-0.558 0.558-1.117 0.559-1.117 0.558-1.675 1.675-2.792 2.233-1.117 1.117-2.792 1.675-3.908 2.791-0.558 0.558-1.117 0.558-1.675 1.117-1.675 1.117-3.35 1.675-5.024 3.35-0.558 0.558-1.117 0.558-1.675 1.117 0 0.558 0 0.558 0 1.116 0 1.117-1.117 2.233-2.792 1.675-1.675-0.558-2.792 0-4.466 0-1.675 0.558-3.35 1.675-5.025 2.233-0.558 0-1.117 0.558-1.675 1.117-1.675 1.117-3.35 1.675-5.025 2.233-1.117 0-2.233 1.117-3.35 1.117-0.558 0-1.117 0.558-1.675 0.558h-0.558c-2.233 1.675-4.467 2.792-6.7 4.467-0.558 0-0.558 0.558-1.117 1.116-0.558 1.117-1.117 1.675-2.233 1.675-2.792 0-3.908 2.233-3.35 4.467 0 0.558 0.558 1.117 0.559 1.675 0.558 1.117 0 2.233-0.559 2.791-0.558 0.558-2.233 0.558-2.791-0.558-1.117-1.117-1.675-2.233-2.234-3.908-0.558-1.117-1.675-2.233-2.791-2.792-1.117-0.558-2.233-0.558-3.35 0-0.558 0-0.558 0.558-1.117 0.558-1.117 1.117-2.792 1.675-4.466 1.117-0.558 0-1.675 0-1.675 0.558-0.558 0.558-0.558 1.675 0 2.234 1.117 1.117 0.558 2.233 0.558 3.908 0 2.233-1.675 3.35-3.908 2.233-0.558-0.558-1.117-0.558-1.675-1.117-0.558 0-0.558-0.558-0.558-1.116-0.558-0.558-0.558-1.675-1.117-2.792-1.117 0.558-2.233 0.558-3.35 1.117-0.558 0-1.117 0.558-1.675 0.558-1.675 0-2.233 0-2.791-1.675-0.558-1.675-1.675-1.675-2.792-2.233-2.233-0.558-5.025-0.558-7.258-1.675h-0.558c-2.233-1.675-4.467-1.675-7.258-1.675-1.675 0-3.35 0.558-5.025 0.558-1.675 0-2.792 0.558-3.908 1.675-0.558 0.558-1.117 1.117-1.675 1.117-0.558-0.558-0.558-1.117-1.117-1.675v-0.558c0-0.558-0.558-1.117-1.116-0.559-1.117 0.558-2.233-0.558-3.35-1.116-0.558-0.558-1.675-1.675-1.675-2.792-0.558-0.558-1.117-1.117-1.675-1.116-1.117 0-2.792-0.558-3.908-0.559-0.558 0-1.117 0-1.117-0.558-0.558-0.558-1.117-0.558-2.233-0.558-0.558 0-0.558-0.558-1.117-0.559 1.117 1.117 1.675 2.233 2.233 3.35 0 0.558 0.558 0.558 0.559 1.117 0.558 1.117 0 1.675-1.675 1.675-1.117 0-1.117 0-1.675 0.558 0 1.117 0 1.675 0 2.792 0 0.558 0 1.117-1.117 1.675 0 0-0.558 0-0.558 0.558-0.558 0.558-0.558 1.117 0 1.675 1.675 1.117 2.792 1.675 4.466 2.233 1.675 0 1.675 1.117 2.234 2.233 0.558 1.117 0 1.675-0.559 2.792-1.117 1.117-2.233 2.233-3.35 3.35-1.675 0.558-2.792 2.233-4.466 2.233-1.117 0-2.233-0.558-2.792-1.675-0.558-2.792-0.558-5.025 0.559-7.816 0-0.558 0.558-1.117 0-1.675-5.025 0-5.025-1.117-5.025-1.675 0-1.117 0.558-1.675 0.558-2.792 0.558-1.117 0-1.675-1.675-2.233-0.558 0-1.117 0-1.675 0-0.558 0-0.558-0.558-1.675-0.558 1.117-0.558 1.675-0.558 2.792-1.117-0.558-2.233-1.117-3.908-2.792-5.025-0.558-0.558-1.117-1.117-1.116-2.233 0-1.675-1.117-2.792-1.675-3.908-1.117-1.675-3.35-2.233-5.025-2.233-1.675-0.558-2.792-0.558-4.467-1.117-1.675-0.558-3.35-2.233-5.024-2.792-0.558-0.558-1.117-1.117-2.234-1.674-2.233-1.117-3.908-2.792-5.583-4.467-1.117-0.558-1.675-1.675-2.791-2.233-1.117-1.117-1.675-2.233-2.792-2.792-1.117-1.117-2.233-2.233-3.908-3.35-1.675-1.117-2.792-2.792-4.467-4.466-1.117-1.675-2.792-2.792-4.466-3.908-0.558 0-1.117 0-1.675 0-0.558 0-1.117 0.558-1.675 0.558-1.675 0.558-2.792 1.675-4.467 2.233 0.558-0.558 0.558-0.558 0-1.675-0.558-0.558-1.117-1.117-1.674-1.116-1.117 0-2.233 0-3.35 0-2.233 0-4.467 0.558-6.7 0.558-1.675 0-3.908 0.558-5.583 1.117 0.558 1.117 0.558 1.675 1.116 2.791-1.117 0.558-2.233 0.558-3.35 0.558-0.558 0-1.675 0.558-2.233 1.117-0.558 0-0.558 0.558-1.116 0-1.117-0.558-2.233 0-3.35 0.558h-0.559c0 0 0-0.558 0.559-0.558 0.558-0.558 1.117-1.117 1.675-1.675 0.558-0.558 1.117-0.558 2.233-1.117-0.558-0.558-0.558-1.117-0.558-1.116-0.558-0.558-1.117-0.558-1.675 0-0.558 0.558-1.117 1.117-1.675 1.675-0.558 0.558-1.117 0.558-1.675 0-0.558-0.558-0.558-1.117 0-1.675 0-0.558 0.558-1.117 1.116-1.675 0.558-0.558 0.558-1.117 1.117-1.675-1.117-1.117-1.675-2.233-2.792-2.792-1.675-1.117-3.35-2.792-4.466-4.466-1.117-2.233-2.792-3.908-5.025-5.025-0.558-0.558-1.117-1.117-1.675-1.675-0.558-0.558-0.558-0.558-1.116-1.117-1.675 0.558-2.792 1.675-4.467 2.234-0.558 0-0.558 0.558-1.117 1.116-0.558 1.117-1.675 1.117-2.791 1.117-0.558 0-1.117-0.558-0.558-1.117 0.558-1.117 1.117-2.233 2.791-1.675 0 0 0.558 0 0.558-0.558 1.117-1.117 2.233-2.792 3.909-3.908-0.558-1.675-1.675-2.792-2.234-3.908-0.558-0.558-0.558-1.117-0.558-2.234 0-0.558 0-0.558-0.558-1.116 0 0-0.558 0-1.117 0.558-0.558 0.558-1.675 1.117-2.791 0 0-0.558 0-1.117 0.558-1.675l0.558-0.558c1.675-0.558 1.675-2.233 1.675-3.908v-0.559c-0.558-1.117-0.558-1.675 0.558-2.791 1.675-1.117 3.35-3.35 3.909-5.025 0.558-1.117 1.675-1.675 2.791-2.792 1.117-1.117 2.233-2.233 2.792-3.908h0.558c2.233 0.558 2.792-1.117 3.908-2.791 0-0.558 0-1.117 0.559-1.117 1.117-1.117 1.117-2.233 0.558-3.908 0-0.558-0.558-1.675-0.558-2.233 0-0.558 0-0.558-0.559-1.117-1.675-1.117-1.675-2.233 0-3.35 1.117-0.558 1.117-1.675 1.675-2.233 0.558-1.117 0.558-2.233 0.559-3.908-0.558-1.675-0.558-3.908-1.117-5.583-0.558-2.233-1.117-5.025-1.675-7.259 0-0.558 0-0.558 0-1.116 0-1.675 0-2.792-0.558-4.467-0.558-0.558-0.558-1.675-0.559-2.233-0.558-1.675-1.117-2.792-2.791-3.35-1.675-1.117-3.908-1.675-5.583-2.791-0.558-0.558-1.117 0-1.675 0.558-0.558 1.117-1.675 2.233-2.234 3.35-0.558 0.558-1.117 1.675-1.675 2.791-1.117 1.117-3.35 2.233-5.024 0.559-0.558-1.117-1.117-1.675 0-2.792 1.117-1.675 2.233-3.35 3.908-4.466 0.558-0.558 1.117-1.675 1.675-2.234 0.558-1.117 0.558-2.233 0.558-3.35-0.558-2.233-1.117-4.467-1.117-7.258 0-2.792 0-5.025 0.559-7.816 0.558-1.117 0.558-2.792 1.116-3.908 0-0.558 0.558-1.675 1.117-2.233 1.117-1.117 2.233-2.233 2.792-3.909 0.558-1.675 1.675-3.35 1.675-5.024 0-0.558 0.558-1.117 0.558-1.675 0-0.558 0.558-1.675 0.558-2.234-0.558-1.675 0-2.792 0.558-3.908 0.558-1.117 1.117-2.792 1.675-3.908 1.117-2.233 1.117-5.025 3.35-7.258 0.558-1.117 1.117-2.233 1.675-3.35 0.558-2.233 1.675-3.908 2.792-5.583 0.558-0.558 0.558-0.558 0.558-1.117 0.558-1.675 1.675-3.35 2.792-5.025 1.117-1.675 1.117-3.35 1.675-5.024 0-0.558 0-1.117 0.558-1.675 1.675-1.675 1.117-3.908 0.558-6.142-1.117-2.792-1.675-5.583-1.116-8.374 0-0.558 0-1.117 0.558-1.117 0.558-1.117 0.558-1.675 1.117-2.792v-0.558c1.117-1.117 2.233-2.792 3.908-3.35 2.233-1.117 4.467-1.675 7.258-2.233 2.233 0 4.467-1.117 6.141-3.35 0-0.558 0.558-0.558 1.117-1.117l0.558-0.558c0.558-1.117 1.117-1.675 1.675-2.233 1.117-1.117 2.233-2.792 3.35-3.908 1.117-1.117 2.233-2.792 3.908-4.467l0.559-0.558c1.117-1.117 2.233-2.233 3.349-2.792 1.117-1.117 2.233-2.233 3.35-3.35 1.117-1.117 1.675-2.233 2.792-3.35 1.117-0.558 2.233-1.675 3.35-2.791 1.117-1.117 2.233-2.233 2.791-2.792 1.117-1.117 2.792-2.233 3.909-2.791 1.117-0.558 2.233-1.117 2.791-2.792 0.558-1.675 1.117-2.792 1.675-4.466 0-1.117 0.558-2.233 1.117-3.35 0.558 0 1.117 0 2.233-0.558-0.558-0.558-1.117-0.558-1.117-1.117 0-0.558 0.558-1.117 0.559-1.117 0-0.558 0.558-1.117 0.558-1.675 0 0 0.558 0 0.558-0.558 0 0 0.558 0 0.559-0.558-1.117 0.558-1.675 0-2.234-0.559 0.558 0.558 1.117 0.558 2.234 1.117 0 0 0.558 0 0.558-0.558 0-0.558 0-1.117 0-1.117 0 0-0.558 0-1.117 0-0.558 0-1.117 0.558-1.675 0.558zM182.097 295.292c0-0.558-0.558-0.558-0.559-1.117-0.558-1.117 0-1.675 0.559-2.233 0.558-0.558 1.117-0.558 2.233-0.558 1.117 0.558 1.675 1.117 1.675 2.233 0 0.558 0 1.675 0 2.233 0.558 2.233 0.558 2.233 2.791 2.233 1.117 0 2.233 0 3.35 0 2.233-0.558 4.467-1.675 6.7-2.233 2.233-0.558 4.467-1.117 6.7-1.675 0.558 0 1.117 0 2.233 0 2.233 0.558 3.908 0 5.583-1.117 0.558-0.558 1.675-0.558 2.233-1.116 1.117-0.558 2.233-0.558 3.35-1.117 2.792-1.675 5.583-2.792 7.817-4.466 1.675-1.117 3.35-2.233 5.024-3.35 1.675-1.117 3.35-2.233 5.025-3.35 1.117-0.558 2.792-1.675 3.908-2.792 2.233-1.675 3.908-3.35 6.142-4.466 1.117-0.558 1.675-1.117 2.233-1.675 1.117-0.558 1.675-1.675 2.792-2.233 0.558-0.558 1.117-1.117 2.233-1.675 0.558-0.558 0.558-0.558 0.558-1.117 1.675-1.117 3.35-3.35 4.467-5.025 1.117-1.117 2.233-2.233 3.35-3.908 1.675-1.675 2.792-3.908 4.466-6.141 1.117-1.117 2.233-2.792 2.792-3.909 1.117-2.233 2.233-4.467 3.908-6.141v-0.558c1.117-2.233 2.233-4.467 3.35-6.7 1.675-2.792 2.792-6.141 4.466-8.933 0.558-1.117 1.117-2.233 1.117-3.35 1.117-2.233 1.675-4.467 2.233-6.7 0-0.558 0-0.558 0.559-1.116 1.675-3.35 2.792-6.7 3.349-10.608 0.558-2.233 1.117-4.467 1.675-6.7 1.117-3.35 1.117-6.141 1.675-9.491 0.558-2.233 0.558-5.025 0.559-7.258 0.558-3.35 0.558-7.258 0-10.608 0-2.792-0.558-6.141-0.559-8.933 0-2.792-0.558-5.025-1.116-7.817-0.558-2.792-1.117-5.025-1.675-7.816-1.117-2.233-1.675-4.467-2.234-7.258-0.558-2.233-1.675-3.908-1.674-6.142 0-1.675-0.558-3.35-2.234-3.908-1.675-0.558-2.792-1.117-4.466-2.233-3.35-2.233-5.025-5.025-4.467-8.375 0-1.675 0.558-3.908 1.117-5.583 0.558-1.675 1.117-3.35 0-4.467-0.558-1.675-1.675-2.792-2.233-3.908-1.117-1.675-1.675-2.792-2.792-3.908-1.117-2.233-2.233-4.467-3.908-6.141-2.233-2.792-3.908-5.583-6.7-7.817l-0.558-0.558c-1.675-2.233-3.35-4.467-5.583-6.142-1.117-1.117-2.233-2.233-3.35-2.791-0.558-0.558-1.117-1.117-2.233-1.675-1.675-1.117-3.35-1.675-4.467-2.792-1.675-1.675-3.908-2.792-5.583-3.908 0 0-0.558 0-0.558-0.558-2.233-1.117-3.908-1.675-6.142-2.792-2.233-1.117-4.467-1.675-6.7-1.675-0.558 0-0.558 0-1.116 0-0.558-0.558-1.675-0.558-2.233-0.558-0.558 0-0.558 0-1.117 0-1.117-0.558-2.792 0-3.908 0-2.233 0.558-4.467 0.558-6.7-0.558-2.792-1.117-5.025-2.233-7.258-3.35-1.675-1.117-2.792-2.233-4.467-3.35-3.35-2.792-6.7-6.141-10.608-8.933 0.558-2.792-0.558-3.35-2.791-3.35-1.117 0-2.233 0.558-3.35 1.117-0.558 0.558-0.558 0.558-1.117 1.116-1.675 1.117-2.792 2.792-4.466 3.909-2.792 1.675-3.908 1.117-6.142 0-0.558-0.558-1.117-1.117-1.675-1.675-1.117-1.117-2.233-2.792-2.791-3.909-1.117-2.233-3.35-2.233-5.583-2.233-1.117 0-2.792 0.558-3.908 0.558-2.233 0-4.467 1.117-5.584 2.792-1.117 1.675-2.233 3.35-3.908 5.025-0.558 0.558-1.675 1.117-2.233 2.233-1.117 1.117-2.233 1.117-3.35 0-0.558-0.558-1.117-0.558-1.675-1.117-0.558 0.558-1.117 1.117-1.117 1.675-0.558 1.117-1.117 2.233-1.674 3.909-0.558 1.675-1.675 3.35-2.792 4.466-0.558 0.558-0.558 0.558-1.117 1.117-0.558 1.117-2.233 1.675-3.35 1.675-1.117 1.117-2.233 2.792-2.791 3.908-0.558 1.117-1.117 2.233-1.675 3.908-0.558 0.558-0.558 1.675-1.117 2.233-0.558 1.117-0.558 1.675-0.558 2.792 0.558 1.675-0.558 2.233-2.233 2.791-1.117 0-1.117 0-1.675 1.117 0 1.675 0.558 2.792 1.116 4.467 0.558 0.558 1.117 1.675 1.117 2.233 0 1.117 0.558 1.675 1.675 2.233 0.558 0.558 1.117 1.117 1.675 1.117 0.558 0 0.558 0.558 1.117 0.558 0.558 0.558 1.117 0 1.116-0.558 0.558-1.675 1.117-3.35 1.117-5.025 0.558-2.233 0.558-3.908 1.116-6.142 0.558-1.117 1.117-1.675 1.675-2.233 0 0 0.558 0 1.117 0v0.559c-0.558 2.792-1.675 6.141-2.233 8.933-0.558 1.117-0.558 2.233-1.117 3.349 0 0.558-0.558 1.117-1.116 1.117-1.117 0.558-2.233 1.117-3.35 1.117-0.558 0-1.117 0-1.675 0-1.117-0.558-2.233-1.675-3.35-2.234-0.558-0.558-1.117-1.117-1.675-1.674-0.558-1.117-1.117-2.233-1.675-3.35-0.558-1.117-1.117-1.675-2.233-2.234-0.558-0.558-1.117-0.558-1.675-1.116-1.117-1.117-2.233-1.675-3.908-1.675-0.558 0-1.675 0-2.234 0-0.558 0-1.675 0.558-2.233 1.116-1.117 0.558-1.675 0.558-2.791 0-2.792-1.117-5.583-0.558-8.375 0.559-1.117 0.558-2.233 1.117-3.35 1.116-2.792 0-5.025 0-7.816 0-2.792 0-5.025-0.558-7.817-1.116-1.117 0-2.233 0-3.35 0-2.233 0.558-2.792 2.233-2.233 4.466 0.558 2.233 1.117 5.025 1.117 7.258 0 1.675 0 3.35 0 5.025 0 1.117 0 1.675 0 2.792 0 1.675-0.558 3.35-0.559 5.025-0.558 3.35-2.233 6.141-4.466 8.374-1.675 1.675-3.908 3.35-6.142 3.908-1.117 0.558-2.233 1.117-3.908 1.675-2.792 1.117-5.025 3.35-6.7 6.142-0.558 1.117-1.117 2.233-1.674 3.35-1.117 1.675-1.675 2.792-2.792 4.466-0.558 1.117-1.675 2.233-2.233 3.35-0.558 1.117-1.675 1.675-1.675 2.792-1.117 2.233-1.675 4.467-2.792 6.699-0.558 1.117-0.558 2.792-1.116 3.909-1.117 2.233-1.117 4.467-1.117 7.258 0 0.558 0 1.117 0 2.233 0 2.792-0.558 6.141-0.558 8.933 0 2.792 0 5.583 0.558 8.375 0 1.117 0 2.792 0 3.908 0 2.233 0.558 5.025 0.558 7.258 0 2.233 0 5.025 1.117 7.258v0.558c0.558 2.233 0.558 4.467 1.116 6.7 0 0.558 0 1.117 0.559 1.675 1.117 3.35 1.675 6.141 2.791 9.491 0.558 2.233 1.675 4.467 2.234 6.7 0.558 2.233 2.792 4.467 3.349 7.258v0c1.675 3.35 3.35 6.7 5.584 10.05 0.558 1.117 1.675 2.233 2.233 3.35 1.117 1.675 1.675 3.35 2.791 4.466 0.558 1.117 1.675 2.233 2.234 2.792 0.558 1.117 1.117 2.233 2.233 3.35 1.117 1.117 2.233 2.792 3.35 3.908 1.675 2.792 3.908 5.025 6.141 6.7 1.117 1.117 2.233 1.675 3.35 2.791 0.558 0.558 1.117 0.558 1.117 1.117 0.558 0.558 1.117 1.117 2.233 1.675 4.467 2.233 7.816 5.583 11.725 8.933 1.675 1.675 3.35 3.35 5.583 4.466 2.233 1.675 3.908 3.35 6.7 3.908 0 0 0.558 0 0.558 0.559 1.117 1.117 2.792 1.675 3.908 2.233 2.233 1.117 5.025 2.233 7.258 3.35 0.558 0.558 1.675 0.558 2.233 1.117 1.675 0.558 3.35 1.117 5.025 1.674 1.675 0.558 2.792 1.117 4.467 1.117h0.558c1.117 0.558 1.675 0.558 2.792 0 0.558 0 1.117 0 1.116 0.558 0 0.558 0.558 0.558 1.117 0.559 0.558 0 1.117 0 2.233 0 0.558-0.558 0.558-1.117 1.117-2.234 0.558 0.558 1.117 0.558 1.116 0.559 0.558 1.117 1.675 1.117 2.792 1.116h0.558c1.117 0 1.675 0 2.233-0.558 0-0.558 1.117-0.558 1.675-0.558 1.675 0.558 3.35 0.558 5.025 1.116 1.117 0.558 2.792 0.558 3.35-0.558 0.558-0.558 1.117-1.117 2.233-0.558 1.117 0.558 1.675 0.558 2.792 0 0.558 0 1.117 0 1.117 0 1.675 0.558 2.792 0.558 4.466 1.116 2.233 0.558 2.233 0.558 3.908-1.116 0.558-0.558 1.675-0.558 2.233 0 0.558 1.117 0.558 1.675 0.559 2.791 0.558 0 0.558 0 1.116-0.558 0-1.117 0.558-1.117 1.675-1.675 0.558 0.558 0.558 0.558 1.117 0.558 1.117 1.117 1.675 1.117 2.233-0.558 0-0.558 0-1.117 0.559-1.116 0.558 0 1.117 0.558 1.116 0.558 0.558 1.117 1.675 1.675 2.233 2.791 1.117 1.117 2.792 1.117 3.35 0 0.558-0.558 1.117-0.558 1.675-0.558 0-0.558 0-1.117 0-1.675 1.675 1.117 1.117 1.117 0.559 1.117zM89.417 34.559c1.675 0.558 2.792 0.558 3.349-0.558-1.117 0.558-2.233-0.558-3.349 0.558z" fill="#000000" fill-rule="nonzero" stroke="none" stroke-width="1" stroke-linecap="butt" stroke-linejoin="miter" stroke-miterlimit="10" stroke-dasharray="" stroke-dashoffset="0" font-family="none" font-weight="none" font-size="none" text-anchor="none" style="mix-blend-mode: normal" data-fill-palette-color="tertiary"></path></g><g transform="matrix(1,0,0,1,64,144.01590702485655)"><svg viewBox="0 0 192 71.9681859502869" height="71.9681859502869" width="192"><g><svg viewBox="0 0 192 71.9681859502869" height="71.9681859502869" width="192"><g><svg viewBox="0 0 192 71.9681859502869" height="71.9681859502869" width="192"><g transform="matrix(1,0,0,1,0,44.47922613770434)"><svg viewBox="0 0 192 27.48895981258256" height="27.48895981258256" width="192"><g id="textblocktransform"><svg viewBox="0 0 192 27.48895981258256" height="27.48895981258256" width="192" id="textblock"><g><svg viewBox="0 0 192 27.48895981258256" height="27.48895981258256" width="192"><g transform="matrix(1,0,0,1,0,0)"><svg width="192" viewBox="0.800000011920929 -32.102378845214844 302.77001953125 43.352378845214844" height="27.48895981258256" data-palette-color="#ffffff"><path d="M26.4-0.75Q25.75-1.6 25.3-2.63 24.85-3.65 24.35-5.1L24.35-5.1Q24.25-5.35 23.78-6.6 23.3-7.85 22.7-8.75L22.7-8.75Q19.55-8.3 17.55-8.3L17.55-8.3Q16.45-8.3 15.13-8.38 13.8-8.45 13.15-8.45L13.15-8.45Q10.65-8.65 9.15-8.65L9.15-8.65Q8.55-7.85 8.13-6.95 7.7-6.05 7.05-4.25L7.05-4.25Q6.15-1.65 5.5-0.55L5.5-0.55Q5.05 0.2 3.75 0.2L3.75 0.2Q2.65 0.2 1.73-0.28 0.8-0.75 0.8-1.6L0.8-1.6Q1.2-3.5 2.08-5.63 2.95-7.75 4.6-11.3L4.6-11.3 6.6-16.2Q8.25-20.4 9.63-23.4 11-26.4 13.25-30.5L13.25-30.5Q13.55-31.1 14.25-31.53 14.95-31.95 15.8-31.95L15.8-31.95Q16.75-31.95 17.18-31.83 17.6-31.7 17.85-31.43 18.1-31.15 18.6-30.3L18.6-30.3Q20.3-27.65 21.53-24.85 22.75-22.05 24.65-17.1L24.65-17.1 25.7-14.45Q27.1-10.85 28.13-8.43 29.15-6 30.4-4L30.4-4Q31.2-2.7 31.2-2.2L31.2-2.2Q31.2-1 30.48-0.38 29.75 0.25 28.6 0.25L28.6 0.25Q27.15 0.25 26.4-0.75L26.4-0.75ZM21.25-12.85Q20.45-14.55 18.95-18.75L18.95-18.75Q17.4-23.25 15.85-25.9L15.85-25.9Q14.9-23.5 13.05-19.7L13.05-19.7Q11.8-17.35 10.2-12.9L10.2-12.9Q13.4-12.5 17.1-12.5L17.1-12.5Q19.75-12.5 21.25-12.85L21.25-12.85ZM57.45-3.85Q57.7-3.75 58.25-3.6 58.8-3.45 59.05-3.3 59.3-3.15 59.3-2.85L59.3-2.85Q59.35-1.65 58.42-0.88 57.5-0.1 56.25-0.1L56.25-0.1Q54.3-0.1 53.2-1.15 52.1-2.2 51.6-4.35L51.6-4.35Q51.4-5.2 51.4-6.7L51.4-6.7Q51.4-7.55 51.5-9.45L51.5-9.45Q51.6-11.45 51.6-12.65L51.6-12.65Q51.6-14.4 50.62-15.73 49.65-17.05 47.9-17.05L47.9-17.05Q46.85-17.05 45.7-16.43 44.55-15.8 44.1-14.9L44.1-14.9Q43.35-13.45 43.05-11.75L43.05-11.75Q42.5-8.75 42.5-5.5L42.5-5.5Q42.5-3.95 42.55-3.1L42.55-3.1Q42.55-2.9 42.57-2.33 42.6-1.75 42.47-1.28 42.35-0.8 42.05-0.4L42.05-0.4Q41.8-0.15 41.27 0.03 40.75 0.2 40.3 0.2L40.3 0.2Q39.6 0.2 38.55-0.4 37.5-1 37.35-1.75L37.35-1.75 37.3-2.6Q37.3-3.05 37.4-3.65L37.4-3.65Q38-7.15 38-9.75L38-9.75Q38-10.9 37.95-11.55L37.95-11.55 37.9-13.9Q37.9-15.1 37.3-16.23 36.7-17.35 35.9-17.35L35.9-17.35Q35.65-17.35 35.2-17.18 34.75-17 34.45-17L34.45-17Q33.95-17 33.37-17.5 32.8-18 32.8-18.55L32.8-18.55Q32.8-19.6 33.5-20.25L33.5-20.25Q34.25-20.85 34.97-21.2 35.7-21.55 36.65-21.55L36.65-21.55Q37.45-21.55 37.95-21.4 38.45-21.25 39.3-20.75L39.3-20.75Q39.75-20.5 40.35-19.65 40.95-18.8 41.35-17.25L41.35-17.25Q42.65-19.65 44.57-20.63 46.5-21.6 49.5-21.6L49.5-21.6Q50.65-21.6 51.97-20.85 53.3-20.1 54.25-19.1L54.25-19.1Q55.15-18 55.75-16.38 56.35-14.75 56.35-13.45L56.35-13.45Q56.35-12.7 56.25-11L56.25-11Q56.1-9.65 56.1-8.15L56.1-8.15Q56.1-4.65 57.45-3.85L57.45-3.85ZM65.45-32.1Q67.2-31.95 68.5-31.18 69.8-30.4 69.8-28.85L69.8-28.85Q69.8-27.7 68.72-27.03 67.65-26.35 66.15-26.35L66.15-26.35Q64.7-26.35 64.15-27.1 63.6-27.85 63.6-28.65L63.6-28.65Q63.6-30.15 63.92-31.15 64.25-32.15 65.45-32.1L65.45-32.1ZM69.45-18.95L69.45-9.95 69.45-8.5Q69.45-6.55 69.57-4.83 69.7-3.1 69.9-1.35L69.9-1.35Q69.84-0.85 69.15-0.33 68.45 0.2 67.9 0.2L67.9 0.2Q66.95 0.2 65.97-0.18 65-0.55 64.8-1.1L64.8-1.1Q64.5-2.7 64.5-3.95L64.5-3.95Q64.5-8.05 64.25-13.15L64.25-13.15Q64.05-17.65 64.05-19.45L64.05-19.45Q64.05-20.35 64.95-21 65.84-21.65 66.84-21.65L66.84-21.65Q68.3-21.65 68.87-21 69.45-20.35 69.45-18.95L69.45-18.95ZM107.24-1.75Q106.49-3.15 106.29-4.88 106.09-6.6 106.09-9.65L106.09-9.65Q106.09-12.55 105.29-14.7 104.49-16.85 101.99-16.85L101.99-16.85Q101.04-16.85 100.12-16.28 99.19-15.7 98.74-14.85L98.74-14.85Q98.04-13.5 97.79-11.93 97.54-10.35 97.54-8.3L97.54-8.3Q97.54-7 97.69-5.65L97.69-5.65Q97.69-5.25 97.77-4.38 97.84-3.5 97.84-2.8L97.84-2.8Q97.84 0.2 95.74 0.2L95.74 0.2Q92.99 0.2 92.84-2.7L92.84-2.7Q92.84-4.75 92.89-4.9L92.89-4.9 92.89-7.05Q92.89-8.85 92.74-10.55 92.59-12.25 92.39-13.1L92.39-13.1Q91.94-14.75 91.22-15.65 90.49-16.55 88.94-16.55L88.94-16.55Q86.74-16.55 85.39-14.65L85.39-14.65Q84.44-13.15 84.14-11L84.14-11Q83.84-8.25 83.72-6.68 83.59-5.1 83.59-3.05L83.59-3.05Q83.59-1.6 83.12-0.7 82.64 0.2 81.34 0.2L81.34 0.2Q80.39 0.2 79.37-0.33 78.34-0.85 78.34-1.75L78.34-1.75Q78.34-2.7 78.54-3.65L78.54-3.65Q78.99-6.5 78.99-13.85L78.99-13.85Q78.99-15.05 78.42-16.18 77.84-17.3 77.04-17.3L77.04-17.3Q76.84-17.3 76.32-17.1 75.79-16.9 75.54-16.9L75.54-16.9Q74.89-16.9 74.37-17.5 73.84-18.1 73.84-18.5L73.84-18.5Q73.84-19.75 75.07-20.63 76.29-21.5 77.64-21.5L77.64-21.5Q79.49-21.5 80.79-20.35 82.09-19.2 82.79-17.15L82.79-17.15Q83.94-19.15 85.89-20.38 87.84-21.6 90.24-21.6L90.24-21.6Q91.74-21.6 92.67-21.23 93.59-20.85 94.19-20.18 94.79-19.5 95.74-18.15L95.74-18.15Q96.99-19.75 98.97-20.65 100.94-21.55 103.04-21.55L103.04-21.55Q105.54-21.55 107.54-19.53 109.54-17.5 110.24-14.85L110.24-14.85Q110.59-13.5 110.59-9.65L110.59-9.65 110.79-6.75Q111.04-4.15 112.49-3.6L112.49-3.6Q114.19-3.1 114.19-2.55L114.19-2.55Q114.19-1.35 113.59-0.8L113.59-0.8Q113.14-0.5 112.34-0.15 111.54 0.2 111.09 0.2L111.09 0.2Q108.39 0.2 107.24-1.75L107.24-1.75ZM117.34-10.6Q117.34-12.5 118.04-14.43 118.74-16.35 119.89-17.95L119.89-17.95Q121.04-19.55 123.54-20.58 126.04-21.6 127.99-21.6L127.99-21.6Q129.99-21.6 132.06-21.05 134.14-20.5 134.94-19.35L134.94-19.35Q136.79-16.75 136.79-14.25L136.79-14.25Q136.79-12.9 136.22-11.95 135.64-11 134.59-9.9L134.59-9.9Q133.74-9 131.91-8.7 130.09-8.4 128.29-8.4L128.29-8.4Q127.14-8.4 125.49-8.63 123.84-8.85 122.29-9.2L122.29-9.2Q122.39-8.2 122.79-7.25 123.19-6.3 123.74-5.8L123.74-5.8Q124.74-4.85 125.81-4.6 126.89-4.35 128.59-4.35L128.59-4.35Q130.39-4.35 131.94-4.95L131.94-4.95Q133.19-5.4 133.99-5.4L133.99-5.4Q134.94-5.4 135.44-4.83 135.94-4.25 135.94-3.35L135.94-3.35Q135.94-2.1 134.49-1.3 133.04-0.5 131.16-0.13 129.29 0.25 128.14 0.25L128.14 0.25Q125.79 0.25 123.59-0.6 121.39-1.45 119.94-3L119.94-3Q118.74-4.4 118.04-6.38 117.34-8.35 117.34-10.6L117.34-10.6ZM128.24-17.35Q127.14-17.35 126.04-16.93 124.94-16.5 124.24-15.75L124.24-15.75Q123.34-14.8 123.02-14.23 122.69-13.65 122.59-12.65L122.59-12.65Q123.84-12.25 127.79-12.25L127.79-12.25Q129.94-12.25 131.12-12.9 132.29-13.55 132.29-14.6L132.29-14.6Q132.29-15.65 130.99-16.5 129.69-17.35 128.24-17.35L128.24-17.35ZM155.59-11.25Q155.99-11 157.16-10.33 158.34-9.65 158.74-8.75 159.14-7.85 159.14-6.25L159.14-6.25Q159.14-4.45 158.09-3.08 157.04-1.7 155.39-0.95L155.39-0.95Q154.19-0.4 152.46-0.1 150.74 0.2 149.74 0.2L149.74 0.2Q148.74 0.2 147.16-0.1 145.59-0.4 144.99-0.65L144.99-0.65Q143.44-1.55 142.31-2.85 141.19-4.15 141.19-5.5L141.19-5.5Q141.19-6.5 141.84-7.08 142.49-7.65 143.54-7.65L143.54-7.65Q144.04-7.65 144.59-7.28 145.14-6.9 145.34-6.5L145.34-6.5Q145.89-5.2 147.19-4.55 148.49-3.9 149.84-3.9L149.84-3.9Q151.59-3.9 153.09-4.48 154.59-5.05 154.59-6.05L154.59-6.05Q154.59-6.5 154.36-6.78 154.14-7.05 153.74-7.35L153.74-7.35Q153.04-7.85 151.64-8.18 150.24-8.5 149.84-8.6L149.84-8.6Q147.79-9.05 145.84-9.95L145.84-9.95Q143.89-10.9 142.74-12.2 141.59-13.5 141.59-15.55L141.59-15.55Q141.59-16.9 142.59-18.38 143.59-19.85 144.84-20.45L144.84-20.45Q145.74-20.8 147.86-21.2 149.99-21.6 150.74-21.6L150.74-21.6Q151.89-21.6 153.24-21.38 154.59-21.15 155.29-20.65L155.29-20.65Q156.64-19.85 157.49-18.98 158.34-18.1 158.34-17L158.34-17Q158.34-16.45 158.09-15.83 157.84-15.2 157.49-15.05L157.49-15.05Q156.74-14.7 155.74-14.7L155.74-14.7Q155.29-14.7 155.01-14.95 154.74-15.2 154.29-15.75L154.29-15.75Q153.74-16.6 153.24-16.75L153.24-16.75Q152.64-16.9 151.49-17.13 150.34-17.35 149.94-17.35L149.94-17.35Q148.79-17.35 147.56-16.7 146.34-16.05 146.34-15.2L146.34-15.2Q146.34-14.75 146.71-14.5 147.09-14.25 147.51-14.05 147.94-13.85 148.09-13.8L148.09-13.8Q149.14-13.3 150.41-12.95 151.69-12.6 151.99-12.5L151.99-12.5Q154.69-11.85 155.59-11.25L155.59-11.25ZM162.88-16.85Q162.49-16.85 162.16-17.18 161.84-17.5 161.84-17.95L161.84-17.95Q161.84-19.1 162.84-20.1L162.84-20.1Q163.13-20.25 164.03-20.6 164.94-20.95 165.63-20.95L165.63-20.95Q167.53-20.95 168.74-19.93 169.94-18.9 169.94-17L169.94-17Q169.94-16.45 169.74-14.65L169.74-14.65Q169.53-12.55 169.53-11.4L169.53-11.4Q169.53-7.9 170.49-5.75L170.49-5.75Q170.84-5.05 171.59-4.65 172.34-4.25 172.94-4.25L172.94-4.25Q174.38-4.25 175.28-4.75 176.19-5.25 177.24-6.35L177.24-6.35Q178.28-7.45 178.61-8.85 178.94-10.25 179.09-12.7L179.09-12.7Q179.19-14.3 179.28-15.05L179.28-15.05Q179.53-17.45 179.53-19.15L179.53-19.15Q179.53-20.25 180.13-20.98 180.74-21.7 181.78-21.7L181.78-21.7Q182.38-21.7 183.16-21.33 183.94-20.95 184.19-20.45L184.19-20.45Q184.49-19.95 184.49-18.8L184.49-18.8Q184.49-18.2 184.34-17.65L184.34-17.65Q183.99-16.4 183.99-14.65L183.99-14.65 184.03-12.05Q184.03-8.5 184.53-6.8L184.53-6.8Q184.78-6 185.24-5.18 185.69-4.35 186.09-3.8L186.09-3.8Q187.09-2.7 187.38-2.27 187.69-1.85 187.69-1.45L187.69-1.45Q187.69-0.85 187.11-0.33 186.53 0.2 185.88 0.2L185.88 0.2Q184.03 0.2 182.69-1.05 181.34-2.3 180.69-4.3L180.69-4.3Q178.99-2.35 177.53-1.15L177.53-1.15Q176.53-0.45 175.09-0.13 173.63 0.2 172.19 0.2L172.19 0.2Q170.24 0.2 168.24-1.4 166.24-3 165.53-5.1L165.53-5.1Q165.49-5.2 165.26-5.9 165.03-6.6 165.03-8L165.03-8Q165.03-9.85 165.24-12.65L165.24-12.65Q165.38-14.45 165.38-15.95L165.38-15.95Q165.38-16.4 165.06-16.7 164.74-17 164.34-17L164.34-17Q164.03-17 163.66-16.93 163.28-16.85 162.88-16.85L162.88-16.85ZM209.53-0.1Q210.88 0.85 211.36 2 211.83 3.15 211.83 5.2L211.83 5.2Q211.83 6.2 211.26 7.2 210.68 8.2 210.08 8.65L210.08 8.65Q205.33 11.25 200.58 11.25L200.58 11.25Q198.23 11.25 196.53 10.65 194.83 10.05 193.33 9.05L193.33 9.05Q192.33 8.3 191.71 6.98 191.08 5.65 191.08 4.35L191.08 4.35Q191.08 2.55 192.21 1.2 193.33-0.15 195.23-0.75L195.23-0.75Q194.88-1.5 194.88-2.5L194.88-2.5Q194.88-3.45 196.28-5.35L196.28-5.35Q193.88-6.15 192.51-8.2 191.13-10.25 191.13-13L191.13-13Q191.13-14.7 191.93-16.03 192.73-17.35 194.33-19.1L194.33-19.1Q195.43-20.3 197.13-20.85 198.83-21.4 201.38-21.4L201.38-21.4Q203.18-21.4 205.83-20.6L205.83-20.6Q208.98-22.8 211.38-22.8L211.38-22.8Q211.98-22.8 212.76-22.5 213.53-22.2 213.93-21.9L213.93-21.9Q214.23-21.35 214.23-20.05L214.23-20.05Q214.23-19.55 213.81-19.07 213.38-18.6 212.73-18.6L212.73-18.6 211.53-18.65Q210.63-18.75 210.13-18.75L210.13-18.75Q209.58-18.75 208.48-18.65L208.48-18.65Q209.53-17.4 210.11-16 210.68-14.6 210.68-12.35L210.68-12.35Q210.68-10.65 209.43-8.8 208.18-6.95 206.48-5.9L206.48-5.9Q203.88-4.5 200.43-4.45L200.43-4.45Q200.03-4.05 199.76-3.73 199.48-3.4 199.48-3.2L199.48-3.2Q199.48-2.65 200.43-2.35 201.38-2.05 203.33-1.9L203.33-1.9Q204.83-1.8 206.66-1.28 208.48-0.75 209.53-0.1L209.53-0.1ZM200.73-8.55Q203.03-8.55 204.43-9.8 205.83-11.05 205.83-13.35L205.83-13.35Q205.83-15.1 204.58-16.2 203.33-17.3 201.38-17.3L201.38-17.3Q200.13-17.3 198.71-16.88 197.28-16.45 196.68-15.55L196.68-15.55Q196.38-15.15 196.08-14.03 195.78-12.9 195.78-12.3L195.78-12.3Q195.78-11.45 196.51-10.58 197.23-9.7 198.41-9.13 199.58-8.55 200.73-8.55L200.73-8.55ZM203.88 2.3Q201.13 2.05 200.01 1.83 198.88 1.6 198.18 1.3L198.18 1.3Q195.63 2.65 195.63 4.25L195.63 4.25Q195.63 5.75 197.18 6.53 198.73 7.3 200.73 7.3L200.73 7.3Q201.63 7.3 203.18 7.1 204.73 6.9 205.78 6.4L205.78 6.4Q206.48 6.05 206.83 5.73 207.18 5.4 207.18 4.55L207.18 4.55Q207.18 3.5 206.08 2.95 204.98 2.4 203.88 2.3L203.88 2.3ZM235.18-0.1Q236.53 0.85 237.01 2 237.48 3.15 237.48 5.2L237.48 5.2Q237.48 6.2 236.91 7.2 236.33 8.2 235.73 8.65L235.73 8.65Q230.98 11.25 226.23 11.25L226.23 11.25Q223.88 11.25 222.18 10.65 220.48 10.05 218.98 9.05L218.98 9.05Q217.98 8.3 217.36 6.98 216.73 5.65 216.73 4.35L216.73 4.35Q216.73 2.55 217.86 1.2 218.98-0.15 220.88-0.75L220.88-0.75Q220.53-1.5 220.53-2.5L220.53-2.5Q220.53-3.45 221.93-5.35L221.93-5.35Q219.53-6.15 218.16-8.2 216.78-10.25 216.78-13L216.78-13Q216.78-14.7 217.58-16.03 218.38-17.35 219.98-19.1L219.98-19.1Q221.08-20.3 222.78-20.85 224.48-21.4 227.03-21.4L227.03-21.4Q228.83-21.4 231.48-20.6L231.48-20.6Q234.63-22.8 237.03-22.8L237.03-22.8Q237.63-22.8 238.41-22.5 239.18-22.2 239.58-21.9L239.58-21.9Q239.88-21.35 239.88-20.05L239.88-20.05Q239.88-19.55 239.46-19.07 239.03-18.6 238.38-18.6L238.38-18.6 237.18-18.65Q236.28-18.75 235.78-18.75L235.78-18.75Q235.23-18.75 234.13-18.65L234.13-18.65Q235.18-17.4 235.76-16 236.33-14.6 236.33-12.35L236.33-12.35Q236.33-10.65 235.08-8.8 233.83-6.95 232.13-5.9L232.13-5.9Q229.53-4.5 226.08-4.45L226.08-4.45Q225.68-4.05 225.41-3.73 225.13-3.4 225.13-3.2L225.13-3.2Q225.13-2.65 226.08-2.35 227.03-2.05 228.98-1.9L228.98-1.9Q230.48-1.8 232.31-1.28 234.13-0.75 235.18-0.1L235.18-0.1ZM226.38-8.55Q228.68-8.55 230.08-9.8 231.48-11.05 231.48-13.35L231.48-13.35Q231.48-15.1 230.23-16.2 228.98-17.3 227.03-17.3L227.03-17.3Q225.78-17.3 224.36-16.88 222.93-16.45 222.33-15.55L222.33-15.55Q222.03-15.15 221.73-14.03 221.43-12.9 221.43-12.3L221.43-12.3Q221.43-11.45 222.16-10.58 222.88-9.7 224.06-9.13 225.23-8.55 226.38-8.55L226.38-8.55ZM229.53 2.3Q226.78 2.05 225.66 1.83 224.53 1.6 223.83 1.3L223.83 1.3Q221.28 2.65 221.28 4.25L221.28 4.25Q221.28 5.75 222.83 6.53 224.38 7.3 226.38 7.3L226.38 7.3Q227.28 7.3 228.83 7.1 230.38 6.9 231.43 6.4L231.43 6.4Q232.13 6.05 232.48 5.73 232.83 5.4 232.83 4.55L232.83 4.55Q232.83 3.5 231.73 2.95 230.63 2.4 229.53 2.3L229.53 2.3ZM242.38-10.6Q242.38-12.5 243.08-14.43 243.78-16.35 244.93-17.95L244.93-17.95Q246.08-19.55 248.58-20.58 251.08-21.6 253.03-21.6L253.03-21.6Q255.03-21.6 257.1-21.05 259.18-20.5 259.98-19.35L259.98-19.35Q261.83-16.75 261.83-14.25L261.83-14.25Q261.83-12.9 261.25-11.95 260.68-11 259.63-9.9L259.63-9.9Q258.78-9 256.95-8.7 255.13-8.4 253.33-8.4L253.33-8.4Q252.18-8.4 250.53-8.63 248.88-8.85 247.33-9.2L247.33-9.2Q247.43-8.2 247.83-7.25 248.23-6.3 248.78-5.8L248.78-5.8Q249.78-4.85 250.85-4.6 251.93-4.35 253.63-4.35L253.63-4.35Q255.43-4.35 256.98-4.95L256.98-4.95Q258.23-5.4 259.03-5.4L259.03-5.4Q259.98-5.4 260.48-4.83 260.98-4.25 260.98-3.35L260.98-3.35Q260.98-2.1 259.53-1.3 258.08-0.5 256.2-0.13 254.33 0.25 253.18 0.25L253.18 0.25Q250.83 0.25 248.63-0.6 246.43-1.45 244.98-3L244.98-3Q243.78-4.4 243.08-6.38 242.38-8.35 242.38-10.6L242.38-10.6ZM253.28-17.35Q252.18-17.35 251.08-16.93 249.98-16.5 249.28-15.75L249.28-15.75Q248.38-14.8 248.05-14.23 247.73-13.65 247.63-12.65L247.63-12.65Q248.88-12.25 252.83-12.25L252.83-12.25Q254.98-12.25 256.15-12.9 257.33-13.55 257.33-14.6L257.33-14.6Q257.33-15.65 256.03-16.5 254.73-17.35 253.28-17.35L253.28-17.35ZM280.63-11.25Q281.03-11 282.2-10.33 283.38-9.65 283.78-8.75 284.18-7.85 284.18-6.25L284.18-6.25Q284.18-4.45 283.13-3.08 282.08-1.7 280.43-0.95L280.43-0.95Q279.23-0.4 277.5-0.1 275.78 0.2 274.78 0.2L274.78 0.2Q273.78 0.2 272.2-0.1 270.63-0.4 270.03-0.65L270.03-0.65Q268.48-1.55 267.35-2.85 266.23-4.15 266.23-5.5L266.23-5.5Q266.23-6.5 266.88-7.08 267.53-7.65 268.58-7.65L268.58-7.65Q269.08-7.65 269.63-7.28 270.18-6.9 270.38-6.5L270.38-6.5Q270.93-5.2 272.23-4.55 273.53-3.9 274.88-3.9L274.88-3.9Q276.63-3.9 278.13-4.48 279.63-5.05 279.63-6.05L279.63-6.05Q279.63-6.5 279.4-6.78 279.18-7.05 278.78-7.35L278.78-7.35Q278.08-7.85 276.68-8.18 275.28-8.5 274.88-8.6L274.88-8.6Q272.83-9.05 270.88-9.95L270.88-9.95Q268.93-10.9 267.78-12.2 266.63-13.5 266.63-15.55L266.63-15.55Q266.63-16.9 267.63-18.38 268.63-19.85 269.88-20.45L269.88-20.45Q270.78-20.8 272.9-21.2 275.03-21.6 275.78-21.6L275.78-21.6Q276.93-21.6 278.28-21.38 279.63-21.15 280.33-20.65L280.33-20.65Q281.68-19.85 282.53-18.98 283.38-18.1 283.38-17L283.38-17Q283.38-16.45 283.13-15.83 282.88-15.2 282.53-15.05L282.53-15.05Q281.78-14.7 280.78-14.7L280.78-14.7Q280.33-14.7 280.05-14.95 279.78-15.2 279.33-15.75L279.33-15.75Q278.78-16.6 278.28-16.75L278.28-16.75Q277.68-16.9 276.53-17.13 275.38-17.35 274.98-17.35L274.98-17.35Q273.83-17.35 272.6-16.7 271.38-16.05 271.38-15.2L271.38-15.2Q271.38-14.75 271.75-14.5 272.13-14.25 272.55-14.05 272.98-13.85 273.13-13.8L273.13-13.8Q274.18-13.3 275.45-12.95 276.73-12.6 277.03-12.5L277.03-12.5Q279.73-11.85 280.63-11.25L280.63-11.25ZM291.27-17.1L288.87-17.3Q288.17-17.4 287.75-17.9 287.32-18.4 287.32-19.1L287.32-19.1Q287.32-19.45 287.5-19.85 287.67-20.25 288.02-20.55L288.02-20.55Q288.67-21.2 291.52-21.2L291.52-21.2Q291.92-23.15 291.92-25.15L291.92-25.15Q291.92-25.9 291.87-26.45 291.82-27 291.82-27.3L291.82-27.3Q291.82-28.4 292.65-28.95 293.47-29.5 294.52-29.5L294.52-29.5Q295.82-29.5 296.3-28.85 296.77-28.2 296.77-26.45L296.77-26.45Q296.77-23.85 296.32-21.35L296.32-21.35Q297.12-21.35 298.52-21.45L298.52-21.45Q300.42-21.55 301.27-21.55L301.27-21.55Q302.12-21.55 302.75-21.13 303.37-20.7 303.37-19.95L303.37-19.95Q303.37-18 301.62-17.65L301.62-17.65Q299.77-17.2 295.87-17.1L295.87-17.1Q295.72-15.15 295.72-12.85L295.72-12.85Q295.72-9.25 296.17-6.95L296.17-6.95Q296.47-5.35 297.2-4.63 297.92-3.9 299.37-3.9L299.37-3.9Q300.22-3.9 301.12-4.35L301.12-4.35Q301.72-4.7 302.22-4.7L302.22-4.7Q302.92-4.7 303.25-4.25 303.57-3.8 303.57-3.05L303.57-3.05Q303.57-1.65 302.07-0.73 300.57 0.2 298.22 0.2L298.22 0.2Q296.77 0.2 295.3-0.5 293.82-1.2 292.82-2.25L292.82-2.25Q292.67-2.4 292.27-3.4 291.87-4.4 291.57-5.55L291.57-5.55Q291.07-7.9 291.07-12.15L291.07-12.15Q291.07-14 291.27-17.1L291.27-17.1Z" opacity="1" transform="matrix(1,0,0,1,0,0)" fill="#000000" class="undefined-text-0" data-fill-palette-color="primary" id="text-0"></path></svg></g></svg></g></svg></g></svg></g><g transform="matrix(1,0,0,1,74.43958922584766,0)"><svg viewBox="0 0 43.12082154830468 37.9897424609891" height="37.9897424609891" width="43.12082154830468"><g><svg xmlns="http://www.w3.org/2000/svg" xmlns:xlink="http://www.w3.org/1999/xlink" version="1.1" x="0" y="0" viewBox="6.300000190734863 11.5 87.39999389648438 77" style="enable-background:new 0 0 100 100;" xml:space="preserve" height="37.9897424609891" width="43.12082154830468" class="icon-icon-0" data-fill-palette-color="accent" id="icon-0"><path d="M72.3 12.3L72.3 12.3 72.3 12.3l-0.4-0.8H28.2L6.3 50l21.8 38.5h43.7L93.7 50 72.3 12.3zM33.3 25.3L9.9 47.7l18.6-32.8L33.3 25.3zM70.7 14.8l6.4 35.7L36.9 25.8 70.7 14.8zM35.5 27.3l41 25.2-41 23.3V27.3zM77 54.5l-7.2 30.8-32.6-8.1L77 54.5zM33.5 75L9.9 50.5l23.6-22.7V75zM33.2 77.6l-4.6 7.7L11.5 55.1 33.2 77.6zM35 78.6l31.4 7.9H30.2L35 78.6zM79.3 53.3l11.6-2.5L72.1 84 79.3 53.3zM90.7 48.9l-11.4 2.5-5.9-33.1L90.7 48.9zM35 24.3l-5-10.8h38.2L35 24.3z" fill="#000000" data-fill-palette-color="accent"></path></svg></g></svg></g><g></g></svg></g></svg></g></svg></g></svg></g><defs></defs></svg><rect width="320" height="360" fill="none" stroke="none" visibility="hidden"></rect></g></svg></g></svg>